<?xml version="1.0" standalone="no"?>
<!DOCTYPE svg PUBLIC "-//W3C//DTD SVG 20010904//EN"
 "http://www.w3.org/TR/2001/REC-SVG-20010904/DTD/svg10.dtd">
<svg version="1.0" xmlns="http://www.w3.org/2000/svg"
 width="300.000000pt" height="465.000000pt" viewBox="0 0 300.000000 465.000000"
 preserveAspectRatio="xMidYMid meet">
<metadata>
Created by potrace 1.10, written by Peter Selinger 2001-2011
</metadata>
<g transform="translate(0.000000,465.000000) scale(0.100000,-0.100000)"
fill="#000000" stroke="none">
<path d="M59 4621 l-24 -19 -5 -344 c-3 -188 -3 -490 0 -670 5 -295 7 -329 23
-345 16 -16 59 -17 668 -16 573 1 653 3 674 17 23 15 24 22 27 143 2 71 5 370
6 666 l2 538 -24 24 -25 25 -649 0 c-625 0 -651 -1 -673 -19z m1336 -561 l0
-541 -25 7 c-14 4 -33 6 -42 6 -23 -1 -250 97 -347 150 -366 199 -513 248
-738 248 -122 0 -153 -6 -153 -27 0 -11 6 -14 23 -9 56 16 168 17 262 2 136
-21 246 -58 394 -134 326 -167 381 -193 457 -221 45 -16 90 -28 101 -25 10 3
31 1 46 -5 l27 -11 0 -115 c0 -111 -1 -115 -22 -120 -13 -3 -313 -4 -668 -3
l-645 3 -3 655 c-1 360 0 661 3 668 3 9 146 12 667 12 l663 0 0 -540z"/>
<path d="M429 3366 c-2 -3 -39 -6 -82 -7 -92 -3 -257 -37 -257 -54 0 -8 26 -6
87 9 75 17 121 20 318 21 197 0 247 -3 347 -23 133 -25 153 -27 118 -8 -26 14
-160 41 -245 50 -78 9 -281 17 -286 12z"/>
<path d="M1609 4611 l-30 -30 3 -655 3 -655 22 -22 22 -22 622 0 c620 1 622 1
643 22 21 21 21 24 24 674 2 689 2 693 -43 706 -11 3 -294 7 -628 8 l-608 3
-30 -29z m1281 -650 l-1 -638 -87 -12 c-214 -27 -478 -22 -677 13 -44 8 -81
11 -83 6 -3 -9 -121 16 -289 60 -129 34 -129 35 -114 16 10 -12 82 -39 136
-51 219 -48 249 -53 264 -43 12 7 47 6 122 -7 192 -31 539 -31 697 1 31 6 34
5 30 -17 l-3 -24 -632 -3 c-503 -2 -633 0 -633 10 -3 140 2 1313 6 1319 3 5
288 9 635 9 l629 0 0 -639z"/>
<path d="M1691 4553 c0 -23 4 -45 9 -48 11 -7 11 16 0 60 -7 28 -8 28 -9 -12z"/>
<path d="M1986 4491 c14 -211 94 -377 245 -506 61 -53 227 -139 255 -133 13 2
-8 16 -61 43 -44 21 -105 55 -135 76 -56 38 -150 130 -150 147 0 6 -4 12 -8
14 -14 6 -52 66 -52 82 0 9 -3 16 -8 16 -8 0 -32 71 -32 95 0 8 -4 15 -8 15
-5 0 -9 24 -11 52 -1 29 -6 55 -11 58 -5 3 -8 16 -5 28 2 12 -1 24 -6 28 -6 4
-6 11 2 20 7 9 8 14 1 14 -6 0 -13 8 -16 18 -3 9 -3 -21 0 -67z"/>
<path d="M1940 4045 c0 -15 102 -126 156 -170 34 -27 25 -16 -27 36 -42 41
-88 90 -102 109 -15 19 -27 31 -27 25z"/>
<path d="M2506 3830 c25 -25 364 -73 364 -52 0 5 -46 12 -102 15 -57 3 -139
15 -182 27 -92 23 -93 23 -80 10z"/>
<path d="M50 3095 l-23 -25 1 -671 1 -672 22 -23 22 -24 647 0 c631 0 648 0
673 20 l25 20 0 372 c1 205 3 508 7 674 5 294 5 302 -16 327 l-20 27 -658 0
-658 0 -23 -25z m1347 -142 c1 -73 -1 -133 -5 -133 -105 0 -477 43 -613 70
-129 27 -276 35 -374 21 -93 -13 -200 -46 -225 -70 -10 -9 -36 -27 -59 -41
-22 -13 -41 -28 -41 -32 0 -12 80 31 117 62 47 41 183 71 327 71 113 0 185 -8
320 -37 84 -17 286 -40 444 -50 l112 -7 0 -155 0 -154 -22 6 c-73 21 -326 30
-521 18 -202 -13 -500 -51 -514 -66 -5 -5 12 -6 37 -2 429 67 716 79 975 41
l40 -6 4 -377 c3 -325 2 -379 -11 -390 -12 -9 -161 -12 -669 -10 l-654 3 -3
679 c-2 537 0 681 10 688 7 4 308 7 668 5 l655 -2 2 -132z"/>
<path d="M226 2459 c6 -10 -23 -19 -61 -19 -19 0 -46 -5 -62 -12 -52 -21 -1
-19 112 6 108 23 109 23 58 27 -28 2 -49 1 -47 -2z"/>
<path d="M1175 2164 c-77 -13 -149 -29 -160 -34 -11 -5 -98 -26 -194 -45 -226
-46 -448 -104 -608 -157 l-127 -43 -1 -72 0 -73 634 0 c349 0 632 3 629 6 -3
3 -284 6 -624 7 l-618 2 -4 37 c-2 20 1 45 7 55 7 15 72 45 126 60 6 1 75 21
155 43 126 35 262 69 405 102 22 5 82 16 133 26 65 12 94 21 97 33 3 8 11 16
18 16 21 1 332 55 336 59 10 9 -74 0 -204 -22z"/>
<path d="M1606 3089 l-26 -31 2 -663 3 -663 24 -26 24 -26 617 0 617 0 22 24
23 24 5 670 5 671 -25 25 -26 26 -620 0 -619 0 -26 -31z m1268 -5 c13 -5 16
-22 16 -85 0 -73 -1 -79 -22 -83 -111 -24 -363 -61 -503 -75 -205 -20 -265
-24 -495 -31 l-235 -8 285 3 c157 2 332 9 390 15 202 20 493 64 563 86 15 5
17 -2 17 -48 0 -50 -2 -55 -27 -66 l-28 -12 27 5 28 5 0 -527 c0 -369 -4 -530
-11 -540 -9 -11 -127 -13 -630 -13 -596 0 -619 1 -628 19 -10 18 -5 1318 4
1349 4 9 136 12 619 12 338 0 621 -3 630 -6z"/>
<path d="M2705 3055 c-258 -56 -569 -62 -858 -14 -148 24 -197 23 -97 -2 313
-78 746 -72 1020 15 58 18 18 19 -65 1z"/>
<path d="M2790 2783 c-8 -2 -24 -8 -35 -12 -49 -19 -124 -41 -139 -41 -10 0
-14 -4 -11 -10 7 -11 -4 -13 -45 -11 -20 2 -22 0 -10 -8 13 -9 13 -11 -2 -11
-30 0 -32 -1 -51 -17 -9 -9 -20 -13 -23 -10 -4 3 -13 -1 -21 -9 -9 -8 -22 -13
-30 -10 -7 3 -16 -1 -20 -10 -4 -11 -14 -14 -34 -10 -19 4 -29 1 -29 -7 0 -6
-29 -21 -65 -32 -36 -10 -65 -23 -65 -27 0 -4 -15 -8 -32 -8 -22 0 -29 -3 -20
-9 10 -6 7 -10 -13 -15 -14 -4 -30 -4 -36 -1 -5 4 -17 -1 -26 -10 -11 -11 -26
-15 -43 -11 -15 2 -31 1 -37 -5 -12 -12 -185 -16 -283 -7 -57 6 -68 5 -45 -2
49 -17 243 -24 325 -11 41 7 111 24 155 40 83 29 667 260 674 267 6 5 -20 4
-39 -3z"/>
<path d="M1644 2187 c-4 -11 0 -48 6 -67 1 -3 5 6 9 20 6 20 14 26 46 28 52 5
160 -12 312 -49 128 -31 168 -35 158 -19 -7 12 107 2 115 -10 3 -4 12 -7 20
-7 205 -7 468 -8 510 -3 75 9 71 9 -225 14 -143 2 -289 9 -325 15 -36 7 -78
13 -95 13 -16 0 -84 13 -150 29 -202 47 -370 63 -381 36z"/>
<path d="M1648 1805 c-3 -5 -6 -22 -6 -37 l1 -28 610 0 c336 0 608 3 604 6 -3
3 -273 7 -599 8 l-593 1 -5 30 c-3 17 -8 26 -12 20z"/>
<path d="M1005 1639 c-22 -11 -50 -32 -62 -47 l-22 -26 -7 30 c-13 55 -11 54
-230 53 -142 -1 -206 -4 -211 -12 -5 -7 -15 -43 -24 -82 l-16 -70 -12 60 c-19
90 -32 105 -90 105 -59 0 -73 -14 -91 -92 -7 -32 -16 -55 -20 -53 -4 2 -10 27
-13 54 -9 76 -22 91 -82 91 -28 0 -56 -5 -63 -12 -19 -19 -15 -66 30 -332 48
-283 49 -286 126 -286 56 0 76 16 87 70 16 84 29 89 41 13 9 -62 32 -83 92
-83 69 0 81 16 103 152 11 62 25 148 33 190 7 43 15 81 19 84 3 3 6 -83 7
-192 0 -169 3 -200 17 -216 14 -15 33 -18 135 -18 92 0 124 4 143 16 22 15 28
14 72 -2 51 -19 76 -34 54 -34 -7 0 -24 -9 -38 -20 -25 -19 -27 -19 -45 -3
-28 26 -133 31 -158 8 -11 -10 -20 -25 -20 -32 0 -10 -9 -7 -30 11 -17 14 -45
28 -63 30 -27 5 -395 2 -420 -3 -4 0 -15 -18 -24 -38 l-15 -37 -14 32 c-20 48
-80 65 -118 33 -14 -12 -16 -42 -16 -211 0 -178 2 -198 18 -213 37 -34 88 -14
97 37 5 25 13 35 30 39 26 4 34 -7 36 -51 2 -42 18 56 17 108 l0 45 -12 -40
c-11 -35 -17 -40 -42 -40 -24 0 -30 5 -35 30 -4 19 -7 2 -8 -47 l-1 -78 -40 0
-40 0 0 210 0 210 44 0 c49 0 46 4 67 -93 7 -31 15 -55 18 -51 3 3 13 36 21
72 l15 67 45 0 45 0 3 -207 2 -208 -40 0 c-23 0 -39 -4 -36 -9 3 -5 100 -8
215 -8 198 2 211 3 239 24 l30 22 23 -25 c19 -20 32 -24 83 -24 47 0 64 4 82
21 l23 21 26 -21 c23 -17 40 -20 118 -20 l92 1 32 36 c24 27 32 32 33 20 0
-10 9 -27 20 -38 18 -18 33 -20 133 -20 129 0 147 9 147 72 0 40 -13 55 -58
64 -36 7 -34 -2 -33 159 2 145 -15 178 -84 161 -26 -7 -44 -49 -46 -105 -1
-34 -2 -33 -16 19 -19 72 -35 89 -80 85 -42 -4 -48 -9 -67 -60 -13 -35 -15
-36 -15 -14 -1 32 -46 79 -75 79 -13 1 -2 8 27 20 60 23 74 34 109 89 24 38
28 55 28 113 0 38 -6 83 -14 102 -17 40 -74 89 -126 106 -39 13 -56 33 -44 52
10 16 71 2 96 -21 28 -27 64 -27 78 -1 7 13 21 20 40 20 l30 0 0 -210 c0 -198
1 -211 21 -231 16 -16 30 -19 67 -17 69 4 72 14 72 256 l0 202 39 0 39 0 4
-216 c3 -200 4 -217 22 -230 15 -11 59 -14 188 -14 155 0 170 2 188 20 11 11
20 30 20 43 1 32 23 57 52 57 21 0 26 -7 37 -50 7 -28 21 -54 30 -59 26 -14
226 -12 245 2 10 7 20 34 24 61 l7 48 24 -43 c45 -82 30 -78 249 -78 232 -1
232 -1 232 89 0 35 -5 62 -13 68 -7 6 -39 12 -72 14 -55 3 -60 5 -69 31 -13
36 2 47 65 47 60 0 79 21 79 84 0 73 -11 86 -74 86 -37 0 -56 4 -59 14 -9 22
2 26 63 26 31 0 61 5 68 12 17 17 16 133 -2 147 -9 8 -75 11 -217 9 l-204 -3
-35 -53 -35 -54 -6 40 c-8 59 -23 72 -85 72 -41 0 -55 -4 -63 -18 -5 -10 -11
-105 -12 -211 -2 -105 -6 -186 -10 -179 -3 7 -19 65 -33 128 -15 63 -34 147
-43 185 -9 39 -22 76 -29 83 -20 19 -118 16 -136 -5 -8 -10 -34 -106 -57 -213
-24 -107 -47 -202 -52 -212 -7 -12 -22 -16 -66 -15 l-58 2 -5 218 c-4 179 -8
219 -20 227 -9 6 -127 10 -275 10 -143 0 -285 2 -315 5 -44 4 -63 1 -95 -16z
m183 -23 c28 -15 32 -15 32 -1 0 13 24 15 170 15 l170 0 0 -65 0 -65 -55 0
-55 0 0 -230 0 -230 -60 0 -60 0 0 230 0 230 -55 0 c-52 0 -55 -1 -55 -25 0
-28 -21 -33 -41 -9 -33 40 -106 57 -129 30 -26 -32 -8 -59 55 -83 112 -43 156
-131 124 -248 -33 -121 -145 -167 -266 -110 l-53 24 -1 78 c0 64 -2 74 -11 56
-10 -20 -19 -23 -70 -23 -54 0 -59 2 -68 26 -15 38 3 54 60 54 54 0 76 18 82
65 l4 30 11 -25 c18 -41 84 -88 146 -104 30 -7 38 -42 12 -52 -19 -8 -60 2
-77 19 -20 19 -61 47 -71 47 -16 0 85 -80 109 -86 39 -10 71 3 76 31 6 30 -10
46 -72 69 -25 10 -56 27 -68 39 -92 85 -69 265 40 321 40 20 129 16 176 -8z
m-1005 -13 c3 -16 11 -75 17 -133 13 -111 28 -171 29 -115 1 17 8 71 16 120 8
50 18 105 21 123 5 32 5 32 63 32 l59 0 17 -117 c32 -216 29 -213 49 -48 10
83 20 153 23 158 2 4 31 7 64 7 56 0 59 -1 54 -22 -2 -13 -23 -135 -45 -273
-22 -137 -43 -260 -45 -272 -5 -21 -11 -23 -69 -23 l-63 0 -17 118 c-27 179
-30 182 -50 41 -24 -172 -17 -159 -87 -159 -39 0 -61 4 -64 13 -6 16 -95 541
-95 561 0 13 12 16 59 16 56 0 59 -1 64 -27z m712 -38 l0 -60 -77 -3 -78 -3 0
-40 0 -41 68 3 67 4 3 -67 3 -68 -71 0 -70 0 0 -60 0 -59 77 -3 77 -3 1 -60 0
-60 -137 -3 -138 -3 0 296 0 296 138 -3 137 -3 0 -60z m795 -164 l0 -229 80
-4 c47 -2 81 1 83 7 2 6 26 110 53 233 l48 222 62 0 61 0 12 -42 c36 -141 118
-534 111 -541 -4 -5 -31 -7 -61 -5 l-54 3 -10 55 -10 55 -50 0 -49 0 -10 -55
-11 -55 -187 -3 -188 -2 0 288 c0 159 3 292 7 295 3 4 30 7 60 7 l53 0 0 -229z
m650 127 l1 -103 25 55 c13 30 34 76 46 103 l21 47 63 0 c53 0 64 -3 64 -17 0
-9 -27 -68 -60 -130 -33 -63 -60 -120 -60 -126 0 -7 29 -76 65 -155 36 -78 65
-147 65 -152 0 -6 -30 -10 -69 -10 -63 0 -70 2 -77 23 -6 19 -28 71 -71 167
-10 21 -12 6 -12 -82 l-1 -108 -60 0 -60 0 0 295 0 295 60 0 60 0 0 -102z
m515 37 l0 -60 -77 -3 -78 -3 0 -40 0 -41 68 3 67 4 3 -67 3 -68 -73 0 -73 0
3 -61 4 -61 74 4 c44 2 75 -1 77 -7 2 -5 3 -35 3 -65 l-1 -55 -137 -3 -138 -3
0 296 0 296 138 -3 137 -3 0 -60z m-295 -220 c0 -113 -4 -175 -10 -175 -11 0
-90 162 -90 184 0 10 52 119 74 155 21 33 26 -3 26 -164z m-1670 113 c0 -22
-3 -23 -63 -20 -54 3 -63 6 -64 23 -2 17 5 19 63 19 60 0 64 -1 64 -22z m218
-488 c30 -19 32 -23 32 -80 0 -33 -3 -60 -7 -60 -4 0 -22 15 -41 33 l-33 32
-19 -23 c-41 -49 -32 -189 13 -216 15 -9 22 -6 41 17 26 33 46 35 47 5 1 -33
4 -20 35 150 l28 152 43 0 c36 0 43 -3 47 -22 3 -13 14 -75 26 -138 31 -169
41 -220 44 -220 2 0 3 84 2 188 l-1 187 43 3 42 3 0 -160 0 -161 45 0 45 0 0
-50 0 -50 -130 0 -130 0 0 24 c0 39 -11 56 -35 56 -19 0 -24 -7 -30 -40 -7
-39 -8 -40 -46 -40 -21 0 -39 5 -39 10 0 6 -13 4 -30 -5 -46 -24 -78 -19 -115
18 -43 43 -58 100 -53 206 4 100 26 154 72 182 39 24 63 24 104 -1z m-568 -40
l0 -50 -50 0 c-47 0 -50 -2 -50 -25 0 -23 4 -25 46 -25 l45 0 -3 -47 -3 -48
-42 2 -43 2 0 -39 0 -39 48 -3 47 -3 3 -47 3 -48 -90 0 -91 0 0 210 0 210 90
0 90 0 0 -50z m155 36 c56 -24 80 -81 80 -196 0 -79 -4 -102 -22 -137 -33 -60
-56 -73 -135 -73 l-68 0 0 203 c0 112 3 207 7 210 12 12 103 7 138 -7z m235
-31 c0 -31 -5 -47 -15 -51 -22 -9 -22 -234 0 -234 11 0 15 -12 15 -45 l0 -45
-75 0 -75 0 0 45 c0 33 4 45 15 45 12 0 15 19 15 114 0 92 -3 115 -15 120 -10
4 -15 20 -15 51 l0 45 75 0 75 0 0 -45z m166 -96 c19 -11 38 -18 44 -14 13 8
13 -45 1 -78 -13 -32 -78 -74 -93 -59 -25 25 -18 172 8 172 4 0 22 -9 40 -21z
m-566 -139 c0 -15 -7 -20 -24 -20 -27 0 -41 14 -31 30 3 6 17 10 31 10 17 0
24 -5 24 -20z"/>
<path d="M2006 1355 c-4 -22 -9 -48 -12 -57 -4 -14 1 -18 20 -18 30 0 30 -1
13 65 l-14 50 -7 -40z"/>
<path d="M630 770 c0 -117 7 -132 45 -90 40 45 17 200 -30 200 -12 0 -15 -20
-15 -110z m40 -7 c0 -36 -3 -63 -6 -60 -7 7 -13 108 -7 120 10 17 13 3 13 -60z"/>
<path d="M1716 1000 c-68 -21 -105 -99 -106 -226 0 -159 44 -234 139 -234 26
0 52 5 59 12 9 9 18 9 38 -1 25 -11 219 -15 257 -4 10 2 23 17 28 31 10 26 11
26 21 7 16 -30 39 -45 69 -45 50 0 59 28 59 182 0 85 4 138 10 138 6 0 10 -51
11 -132 0 -73 4 -142 9 -153 5 -12 9 42 9 143 l1 162 -30 0 -30 0 0 -160 0
-160 -40 0 -39 0 -31 100 c-17 55 -32 100 -34 100 -2 0 -1 -45 2 -100 l5 -100
-42 0 -41 0 0 211 0 210 47 -3 47 -3 20 -75 21 -75 3 77 3 77 234 0 235 1 0
-50 0 -50 -50 0 c-47 0 -50 -2 -50 -25 0 -23 4 -25 46 -25 l45 0 -3 -47 -3
-48 -42 2 -43 2 0 -40 0 -39 50 0 50 0 0 -50 0 -50 -90 0 -90 0 0 160 0 160
-36 0 c-29 0 -35 -3 -30 -16 3 -9 6 -79 6 -157 0 -95 3 -137 10 -127 5 8 10
75 10 148 0 81 4 132 10 132 6 0 10 -53 10 -138 0 -189 -5 -183 157 -181 115
1 128 3 147 23 l21 21 23 -23 c17 -17 31 -22 59 -20 58 5 62 25 26 113 -30 71
-31 77 -17 110 18 44 18 126 0 170 -26 61 -39 64 -371 65 -265 0 -300 -2 -317
-16 -16 -16 -20 -16 -35 -2 -15 13 -48 16 -188 15 -93 0 -179 2 -190 5 -11 3
-33 2 -49 -2z m79 -26 c32 -15 33 -19 37 -76 1 -33 -1 -62 -5 -65 -5 -3 -21 9
-35 27 -46 55 -82 16 -82 -90 0 -106 33 -147 77 -96 35 41 49 29 45 -38 -4
-50 -7 -58 -32 -71 -62 -32 -121 -7 -153 63 -17 37 -21 66 -21 137 0 108 14
154 60 195 39 34 61 37 109 14z m226 2 c2 -3 3 -25 1 -50 l-4 -46 -44 0 c-40
0 -44 -2 -44 -25 0 -23 4 -25 46 -25 l45 0 -3 -47 -3 -48 -42 2 -43 2 0 -40 0
-39 45 0 45 0 0 -50 0 -51 -87 3 -88 3 0 200 c-1 110 1 203 3 208 3 7 165 10
173 3z m792 -5 c54 -21 73 -122 37 -197 l-21 -42 36 -77 c19 -43 35 -82 35
-87 0 -5 -21 -8 -47 -6 l-47 3 -24 60 c-13 33 -27 63 -31 67 -3 4 -5 -24 -3
-63 l4 -70 -43 3 -44 3 -2 195 c-1 107 0 201 2 208 5 14 111 17 148 3z m-1014
-141 c30 -26 33 -33 28 -66 -10 -57 -67 -105 -88 -73 -12 19 -11 126 1 150 14
25 18 24 59 -11z m211 -130 c0 -24 -45 -29 -53 -6 -7 18 -4 21 27 24 20 1 26
-3 26 -18z m630 2 c0 -19 -44 -29 -55 -12 -10 16 4 30 31 30 16 0 24 -6 24
-18z"/>
<path d="M2750 839 c0 -52 24 -48 28 4 2 28 -1 37 -12 37 -12 0 -16 -11 -16
-41z"/>
<path d="M2335 550 c8 -13 45 -13 65 0 11 7 3 10 -28 10 -26 0 -41 -4 -37 -10z"/>
<path d="M2755 437 c-8 -4 -15 -5 -15 -2 0 4 -13 -3 -29 -14 -29 -21 -30 -21
-1370 -22 -1271 0 -1341 -1 -1341 -18 0 -17 70 -18 1359 -17 1094 1 1357 3
1349 13 -7 9 -7 13 1 13 6 0 11 7 11 15 0 8 5 15 11 15 7 0 8 -11 4 -30 -4
-19 -3 -30 4 -30 6 0 11 -4 11 -9 0 -5 -10 -7 -22 -3 -17 4 -20 2 -15 -12 4
-10 7 -20 7 -22 0 -2 7 -4 15 -4 7 0 18 -8 24 -17 5 -10 13 -15 17 -11 4 4 2
13 -3 20 -6 7 -13 31 -15 53 -5 34 -2 43 19 59 13 10 27 15 31 11 4 -4 1 -10
-5 -12 -8 -3 -11 -14 -7 -28 3 -12 1 -26 -5 -29 -6 -4 -11 -15 -11 -24 0 -15
2 -15 10 -2 6 8 15 32 20 53 11 39 24 47 34 22 3 -9 -1 -18 -9 -21 -37 -15 -8
-24 75 -24 83 0 90 1 90 20 0 18 -7 20 -63 20 -50 0 -68 4 -81 19 -19 21 -77
32 -101 18z"/>
<path d="M1127 343 c-13 -12 -7 -42 11 -52 11 -7 12 -11 4 -11 -9 0 -12 -10
-10 -27 2 -21 -2 -29 -16 -31 -18 -4 -19 1 -13 56 l6 60 -59 0 c-65 0 -88 -18
-75 -58 10 -32 75 -39 75 -9 0 5 -9 9 -20 9 -11 0 -20 7 -20 16 0 11 8 14 31
12 64 -6 37 -88 -29 -88 -49 0 -92 76 -60 108 9 9 -1 12 -45 12 l-57 0 0 -60
c0 -47 -3 -60 -15 -60 -12 0 -15 13 -15 60 0 57 -1 60 -25 60 -24 0 -25 -3
-25 -60 0 -75 -13 -77 -59 -10 -19 28 -36 50 -39 50 -2 0 -2 -22 2 -50 6 -47
5 -50 -15 -50 -21 0 -22 3 -16 60 5 44 3 60 -6 60 -8 0 -12 -16 -12 -46 -1
-34 -6 -50 -20 -60 -48 -35 -95 -3 -95 64 0 27 -4 42 -13 42 -9 0 -11 -12 -9
-39 3 -32 -1 -42 -23 -60 -35 -27 -55 -27 -90 1 -23 18 -26 26 -22 60 4 28 2
38 -9 38 -10 0 -14 -15 -14 -60 0 -46 -3 -60 -14 -60 -11 0 -16 14 -18 48 l-3
47 -14 -27 c-8 -16 -17 -28 -21 -28 -4 0 -13 12 -21 28 l-14 27 -3 -47 c-2
-35 -7 -48 -18 -48 -13 0 -15 11 -12 60 l3 60 -37 0 -37 0 17 -29 c19 -33 8
-56 -13 -27 -14 19 -45 16 -45 -4 0 -5 -7 -10 -15 -10 -14 0 -14 3 0 30 21 40
20 40 -25 40 -29 0 -40 -4 -40 -15 0 -8 6 -15 13 -15 8 0 19 -11 25 -25 9 -20
20 -25 49 -26 21 -1 46 -2 55 -3 10 -1 25 -11 33 -24 18 -25 50 -29 59 -7 7
19 40 20 55 1 9 -10 35 -13 104 -11 115 4 98 4 196 -1 54 -2 90 1 98 8 10 8
20 8 38 -2 21 -11 29 -11 52 1 20 11 27 11 30 2 7 -18 50 -16 57 3 3 9 6 28 6
44 0 16 7 30 16 34 22 9 31 0 39 -34 8 -36 39 -59 80 -59 32 -1 267 7 300 9
11 1 34 -1 50 -4 17 -3 23 -3 14 0 -10 3 -19 14 -22 25 -7 27 -67 27 -74 -1
-5 -20 -33 -28 -33 -10 0 6 11 33 25 60 l25 50 -40 0 c-31 0 -38 -3 -33 -15 3
-9 -2 -24 -11 -34 -11 -13 -14 -21 -7 -26 6 -3 16 -15 21 -26 9 -16 7 -19 -9
-19 -13 0 -27 12 -36 30 -19 37 -19 37 5 43 14 3 20 14 20 31 0 23 -4 26 -33
26 -19 0 -37 -3 -40 -7z m63 -23 c0 -16 -7 -20 -30 -20 -23 0 -30 4 -30 20 0
16 7 20 30 20 23 0 30 -4 30 -20z"/>
<path d="M2863 343 c11 -3 16 -10 13 -18 -3 -8 0 -16 7 -19 7 -2 4 -5 -5 -5
-10 -1 -18 -5 -18 -11 0 -5 -9 -10 -20 -10 -23 0 -27 15 -5 24 8 3 15 11 15
17 0 7 -11 2 -25 -11 -17 -16 -21 -26 -14 -31 8 -5 8 -8 0 -13 -6 -4 -11 -16
-11 -27 0 -10 -4 -19 -10 -19 -5 0 -10 9 -10 19 0 19 -6 23 -64 36 -23 5 -27
8 -15 16 11 7 11 9 -4 9 -15 0 -16 3 -7 20 10 19 8 20 -50 20 l-60 0 0 -46 0
-46 38 4 c28 2 37 -1 37 -12 0 -11 -12 -15 -50 -15 l-50 0 -3 58 c-3 56 -4 57
-32 57 l-29 0 25 -55 c28 -65 28 -65 10 -65 -8 0 -18 9 -21 20 -4 14 -15 20
-35 20 -19 0 -33 -7 -40 -20 -9 -18 -40 -29 -40 -15 0 3 11 28 25 55 14 27 25
52 25 55 0 3 -18 5 -40 5 l-41 0 3 -57 c3 -50 0 -58 -16 -61 -17 -4 -19 1 -13
57 l5 61 -35 0 -35 0 4 -57 c3 -50 0 -58 -16 -61 -17 -4 -18 2 -14 57 3 46 1
61 -9 61 -7 0 -13 -10 -13 -23 0 -30 -18 -47 -50 -47 -21 0 -26 -5 -26 -22 1
-13 -6 -24 -16 -26 -14 -3 -16 5 -11 56 l6 60 -52 0 c-54 0 -67 -17 -21 -28
12 -3 29 -15 37 -27 13 -19 12 -24 -6 -42 -24 -24 -46 -26 -78 -8 -16 9 -20
16 -13 27 7 12 12 12 22 2 14 -14 44 -16 53 -2 3 5 -11 16 -30 25 -20 8 -39
24 -42 35 -3 12 -14 20 -26 20 -16 0 -18 -3 -9 -12 33 -33 -11 -108 -63 -108
-52 0 -96 75 -63 108 9 9 7 12 -10 12 -20 0 -22 -5 -22 -60 0 -47 -3 -60 -15
-60 -10 0 -15 10 -15 30 0 27 -3 30 -30 30 -27 0 -30 -3 -30 -30 0 -20 -5 -30
-15 -30 -12 0 -15 13 -15 60 l0 60 -60 0 c-47 0 -60 -3 -60 -15 0 -10 11 -15
35 -15 24 0 35 -5 35 -15 0 -10 -11 -15 -35 -15 -26 0 -35 -4 -35 -16 0 -14 7
-16 40 -11 35 4 40 2 40 -14 0 -16 -8 -19 -56 -19 l-56 0 4 58 3 58 -47 1
c-52 1 -71 -13 -66 -48 5 -32 33 -47 59 -31 31 20 47 -1 18 -22 -31 -21 -51
-20 -84 6 -23 18 -26 26 -22 60 5 38 5 38 -30 38 l-34 0 33 -62 33 -63 136 -1
c75 -1 144 -4 153 -7 9 -4 25 -1 36 5 15 9 24 9 43 -1 17 -9 30 -10 43 -3 12
7 27 5 50 -4 29 -12 40 -12 79 2 34 11 50 12 60 4 21 -17 155 -7 170 13 16 22
31 21 62 -3 31 -24 37 -25 57 -5 13 14 18 14 38 2 24 -15 90 -16 122 -2 11 5
32 3 52 -4 51 -18 142 -16 164 4 10 9 16 23 13 31 -3 8 1 14 11 14 9 0 16 -4
16 -10 0 -5 7 -10 16 -10 9 0 29 -8 44 -17 27 -15 30 -15 56 3 14 10 35 24 46
30 10 6 29 21 42 33 14 13 35 21 59 21 26 0 37 4 37 15 0 11 -12 15 -49 15
-27 0 -61 2 -77 4 -16 2 -21 1 -11 -1z"/>
<path d="M240 331 c0 -19 22 -23 38 -7 15 15 14 16 -11 16 -15 0 -27 -4 -27
-9z"/>
<path d="M392 328 c-21 -21 -14 -57 13 -70 34 -15 57 5 53 46 -2 25 -8 32 -28
34 -14 2 -31 -3 -38 -10z"/>
<path d="M537 303 c3 -21 10 -42 15 -48 16 -18 43 10 46 49 3 35 2 36 -32 36
-35 0 -35 0 -29 -37z"/>
<path d="M711 313 c13 -16 25 -30 27 -32 1 -2 2 10 2 27 0 28 -3 32 -27 32
l-26 0 24 -27z"/>
<path d="M1710 325 c0 -10 10 -15 30 -15 20 0 30 5 30 15 0 10 -10 15 -30 15
-20 0 -30 -5 -30 -15z"/>
<path d="M1860 320 c-21 -40 12 -80 53 -64 40 15 26 84 -18 84 -14 0 -29 -8
-35 -20z"/>
<path d="M2140 320 c0 -17 5 -21 28 -18 16 2 27 9 27 18 0 9 -11 16 -27 18
-23 3 -28 -1 -28 -18z"/>
<path d="M2456 314 c-10 -25 -7 -34 9 -34 8 0 15 9 15 19 0 26 -16 35 -24 15z"/>
</g>
</svg>
